<svg width="64" height="64" viewBox="0 0 64 64" fill="none" xmlns="http://www.w3.org/2000/svg">
<path d="M54.9375 21.5547L49.2734 46.4375L46.0117 46.4375L44.7227 43.3516L50.7578 18H54.332L54.9375 21.5547ZM57.1445 46.4375L52.3984 21.4375L53.2187 18L57.2812 18L63.4531 46.4375H57.1445ZM40.6797 21.5742L35.9922 46.4375H29.7031L35.875 18H39.8984L40.6797 21.5742ZM43.8828 46.4375L38.1406 21.418L38.8047 18L42.3594 18L48.4922 43.3711L47.1445 46.4375H43.8828Z" fill="#5260FF"/>
<path d="M10.0625 42.9453L15.7266 18.0625H18.9883L20.2773 21.1484L14.2422 46.5H10.668L10.0625 42.9453ZM7.85547 18.0625L12.6016 43.0625L11.7812 46.5H7.71875L1.54688 18.0625H7.85547ZM24.3203 42.9258L29.0078 18.0625H35.2969L29.125 46.5H25.1016L24.3203 42.9258ZM21.1172 18.0625L26.8594 43.082L26.1953 46.5H22.6406L16.5078 21.1289L17.8555 18.0625H21.1172Z" fill="#3880FF"/>
</svg>
